name Walk10.mot
datacolumns 19
datarows 20
range 1.96100000 1.98000000
endheader

                time	   L_ground_force_vx	   L_ground_force_vy	   L_ground_force_vz	   L_ground_force_px	   L_ground_force_py	   L_ground_force_pz	   R_ground_force_vx	   R_ground_force_vy	   R_ground_force_vz	   R_ground_force_px	   R_ground_force_py	   R_ground_force_pz	   L_ground_torque_x	   L_ground_torque_y	   L_ground_torque_z	   R_ground_torque_x	   R_ground_torque_y	   R_ground_torque_z	
          1.96100000	          0.00000000	          0.00000000	          0.00000000	         -0.00000000	          0.00000000	          0.00000000	          9.32184952	         31.81442966	         -5.22200149	          0.23519559	          0.00000000	          0.03938728	          0.00000000	          0.00000000	          0.00000000	          0.00000000	         -2.47605141	          0.00000000	
          1.96200000	          0.00000000	          0.00000000	          0.00000000	         -0.00000000	          0.00000000	          0.00000000	          8.34644496	         28.04373073	         -4.93736982	          0.22503670	          0.00000000	          0.03760770	          0.00000000	          0.00000000	          0.00000000	          0.00000000	         -2.25900260	          0.00000000	
          1.96300000	          0.00000000	          0.00000000	          0.00000000	         -0.00000000	          0.00000000	          0.00000000	          7.42243408	         24.48766160	         -4.65828155	          0.21489121	          0.00000000	          0.03583732	          0.00000000	          0.00000000	          0.00000000	          0.00000000	         -2.05187194	          0.00000000	
          1.96400000	          0.00000000	          0.00000000	          0.00000000	         -0.00000000	          0.00000000	          0.00000000	          6.54893881	         21.14141110	         -4.38531996	          0.20479631	          0.00000000	          0.03408204	          0.00000000	          0.00000000	          0.00000000	          0.00000000	         -1.85459884	          0.00000000	
          1.96500000	          0.00000000	          0.00000000	          0.00000000	         -0.00000000	          0.00000000	          0.00000000	          5.72496482	         17.99978429	         -4.11899560	          0.19478583	          0.00000000	          0.03234722	          0.00000000	          0.00000000	          0.00000000	          0.00000000	         -1.66709063	          0.00000000	
          1.96600000	          0.00000000	          0.00000000	          0.00000000	         -0.00000000	          0.00000000	          0.00000000	          4.94941523	         15.05725467	         -3.85975052	          0.18489044	          0.00000000	          0.03063766	          0.00000000	          0.00000000	          0.00000000	          0.00000000	         -1.48922560	          0.00000000	
          1.96700000	          0.00000000	          0.00000000	          0.00000000	         -0.00000000	          0.00000000	          0.00000000	          4.22110340	         12.30801331	         -3.60796244	          0.17513774	          0.00000000	          0.02895769	          0.00000000	          0.00000000	          0.00000000	          0.00000000	         -1.32085596	          0.00000000	
          1.96800000	          0.00000000	          0.00000000	          0.00000000	         -0.00000000	          0.00000000	          0.00000000	          3.53876511	          9.74601479	         -3.36394878	          0.16555245	          0.00000000	          0.02731113	          0.00000000	          0.00000000	          0.00000000	          0.00000000	         -1.16181060	          0.00000000	
          1.96900000	          0.00000000	          0.00000000	          0.00000000	         -0.00000000	          0.00000000	          0.00000000	          2.90106990	          7.36502012	         -3.12797060	          0.15615656	          0.00000000	          0.02570136	          0.00000000	          0.00000000	          0.00000000	          0.00000000	         -1.01189772	          0.00000000	
          1.97000000	          0.00000000	          0.00000000	          0.00000000	         -0.00000000	          0.00000000	          0.00000000	          2.30663172	          5.15863685	         -2.90023639	          0.14696946	          0.00000000	          0.02413135	          0.00000000	          0.00000000	          0.00000000	          0.00000000	         -0.87090734	          0.00000000	
          1.97100000	          0.00000000	          0.00000000	          0.00000000	         -0.00000000	          0.00000000	          0.00000000	          1.75401892	          3.12035618	         -2.68090577	          0.13800813	          0.00000000	          0.02260363	          0.00000000	          0.00000000	          0.00000000	          0.00000000	         -0.73861359	          0.00000000	
          1.97200000	          0.00000000	          0.00000000	          0.00000000	         -0.00000000	          0.00000000	          0.00000000	          1.24176354	          1.24358752	         -2.47009304	          0.12928723	          0.00000000	          0.02112040	          0.00000000	          0.00000000	          0.00000000	          0.00000000	         -0.61477695	          0.00000000	
          1.97300000	          0.00000000	          0.00000000	          0.00000000	         -0.00000000	          0.00000000	          0.00000000	          0.76836991	         -0.47830967	         -2.26787057	          0.12081926	          0.00000000	          0.01968347	          0.00000000	          0.00000000	          0.00000000	          0.00000000	         -0.49914633	          0.00000000	
          1.97400000	          0.00000000	          0.00000000	          0.00000000	         -0.00000000	          0.00000000	          0.00000000	          0.33232268	         -2.05199658	         -2.07427215	          0.11261474	          0.00000000	          0.01829433	          0.00000000	          0.00000000	          0.00000000	          0.00000000	         -0.39146094	          0.00000000	
          1.97500000	          0.00000000	          0.00000000	          0.00000000	         -0.00000000	          0.00000000	          0.00000000	         -0.06790576	         -3.48412805	         -1.88929608	          0.10468224	          0.00000000	          0.01695417	          0.00000000	          0.00000000	          0.00000000	          0.00000000	         -0.29145217	          0.00000000	
          1.97600000	          0.00000000	          0.00000000	          0.00000000	         -0.00000000	          0.00000000	          0.00000000	         -0.43384852	         -4.78132802	         -1.71290824	          0.09702864	          0.00000000	          0.01566389	          0.00000000	          0.00000000	          0.00000000	          0.00000000	         -0.19884524	          0.00000000	
          1.97700000	          0.00000000	          0.00000000	          0.00000000	         -0.00000000	          0.00000000	          0.00000000	         -0.76703788	         -5.95016713	         -1.54504494	          0.08965912	          0.00000000	          0.01442413	          0.00000000	          0.00000000	          0.00000000	          0.00000000	         -0.11336074	          0.00000000	
          1.97800000	          0.00000000	          0.00000000	          0.00000000	         -0.00000000	          0.00000000	          0.00000000	         -1.06899964	         -6.99714237	         -1.38561571	          0.08257739	          0.00000000	          0.01323527	          0.00000000	          0.00000000	          0.00000000	          0.00000000	         -0.03471613	          0.00000000	
          1.97900000	          0.00000000	          0.00000000	          0.00000000	         -0.00000000	          0.00000000	          0.00000000	         -1.34124785	         -7.92865884	         -1.23450591	          0.07578574	          0.00000000	          0.01209748	          0.00000000	          0.00000000	          0.00000000	          0.00000000	          0.03737297	          0.00000000	
          1.98000000	          0.00000000	          0.00000000	          0.00000000	         -0.00000000	          0.00000000	          0.00000000	         -1.58528012	         -8.75101335	         -1.09157917	          0.06928517	          0.00000000	          0.01101072	          0.00000000	          0.00000000	          0.00000000	          0.00000000	          0.10319154	          0.00000000	
